<svg xmlns="http://www.w3.org/2000/svg" width="682" height="512"><path fill="#F4CBFA" d="M114.091 207.367c2.653 1.008 7.338.686 10.218.64-.252 5.08-2.16 8.744-5.925 12.1-2.112 1.882-4.921 3.251-7.707 3.77-3.202.598-6.622.431-9.866.454l-15.517.092c-8.78.044-17.943.645-26.674.056-1.485-.1-2.62-1.047-3.888-1.726-3.258-1.742-6.687-3.213-9.099-6.136-.838-1.015-1.8-2.263-2.237-3.512 1.12-.259 2.497-1.613 3.533-2.276.846 1.11 1.852 2.045 3.068 2.736 1.061.604 2.147.971 3.369 1.054 3.837.261 7.802.083 11.65.074l21.166-.086 13.008-.01c2.393-.002 5.461.302 7.746-.438 3.448-1.119 5.53-3.702 7.155-6.792Z"/><path fill="#fff" d="M43.396 213.105c-1.42-2.464-2.286-5.626-1.923-8.478.26-2.044 1.625-4.022 3.756-4.434.916-.176 1.84-.07 2.604-.678l.051-.695c.409-4.208 2.469-7.755 7.087-7.802.32-.003 1.824.08 1.994-.05.406-.31 1.144-2.024 1.481-2.543 1.091-1.678 2.358-3.272 3.927-4.532 2.31-1.854 4.648-2.61 7.627-2.214 2.535.338 4.01 1.91 5.413 3.89l.254.368.833-.276c2.493-.83 5.482-1.055 8.08-.614 2.992.506 5.88 2.332 7.594 4.83l.17.255c2.847-1.768 5.519-2.999 8.933-3.126 3.805-.143 7.157.578 10.01 3.237 3.25 3.03 4.116 5.958 4.263 10.312 1.538.084 3.846.073 5.182.865 2.202 1.305 2.913 4.297 3.577 6.586-2.88.047-7.565.37-10.218-.64-1.625 3.09-3.707 5.674-7.155 6.793-2.285.74-5.353.436-7.746.438l-13.008.01-21.167.086c-3.847.01-7.812.187-11.65-.074-1.22-.083-2.307-.45-3.368-1.054-1.216-.69-2.222-1.626-3.068-2.736-1.036.663-2.414 2.017-3.533 2.276Z"/><path fill="#F4CBFA" d="m60.75 197.382.16-.207c.46-.602.819-1.18 1.188-1.84.64-1.14 1.659-2.225 2.967-2.574 1.501-.4 3.475-.29 4.756.622 1.372.977 2.452 2.546 3.376 3.93l22.695-.054c3.218-.004 7.113-.42 10.275.154 1.262.23 2.27.912 3.163 1.808 1.371 1.374 2.415 2.942 2.953 4.808l-65.145-.126c.92-.38 2.119-.335 3.11-.404.013-.964-.01-2.018.203-2.959.248-1.098.655-1.952 1.647-2.51 2.32-1.303 6.162-1.42 8.652-.648Z"/><path fill="#FFE3FF" d="M50.248 203.499c.013-.964-.01-2.018.203-2.959.248-1.098.655-1.952 1.647-2.51 2.32-1.303 6.162-1.42 8.652-.648l-.16.167c-1.245 1.354-1.59 4.18-1.716 5.976-2.755-.003-5.92.313-8.626-.026Z"/><path fill="#0F153F" d="m47.138 203.903 65.145.126 2.041.138c.517 1.048.016 2.078-.233 3.2-1.625 3.09-3.707 5.673-7.155 6.792-2.285.74-5.353.436-7.746.438l-13.008.01-21.167.086c-3.847.01-7.812.187-11.65-.074-1.22-.083-2.307-.45-3.368-1.054-1.216-.69-2.222-1.626-3.068-2.736a9.228 9.228 0 0 1-.742-1.404c-.514-1.23-.972-3.806-.358-5.018.198-.39.904-.41 1.31-.504Z"/><path fill="#fff" d="M146.725 388.062c.695-2.453 1.337-4.595 2.942-6.616 1.994-2.508 4.628-4.186 7.85-4.511.635-.065.536-.554.713-1.1 1.107-3.432 2.583-5.82 5.312-8.226 3.276-2.89 7.59-4.5 11.974-4.15 5.203.415 8.129 2.653 11.446 6.529 2.274-5.427 5.7-9.155 11.116-11.644 4.315-1.983 9.881-2.363 14.339-.635 5.91 2.29 9.243 7.555 11.666 13.126 2.938-2.382 5.53-4.065 9.25-4.881 3.015-.662 6.498-.482 9.45.419 5.378 1.643 8.07 4.895 10.602 9.704 1.792-.027 3.498.183 5.271.424 1.362.867 2.67 2.023 3.538 3.398 1.4 2.218 1.763 4.927 1.214 7.467l-7.315-.414c-1.412-.108-1.84-.298-2.737-1.34l-1.175-.33-86.717.174c-2.471.044-5.63-.278-7.99.378l-.092 1.493-.4.909c-2.63.126-7.96.928-10.257-.174Z"/><path fill="#F4CBFA" d="M165.464 385.456c.53-2.4 1.5-6.265 3.215-8.073l24.502.598c3.608-4.247 6.872-6.81 12.587-7.242 3.046-.23 6.534.551 8.9 2.577.912.78 1.655 1.82 2.213 2.875.104.199.784 1.759.873 1.804.195.101 1.169 0 1.44 0l13.595.02c2.11.01 5.278-.363 7.176.557 2.28 1.104 2.23 4.98 4.112 6.288.118.082 1.445.024 1.655.028 2.151.04 4.33-.018 6.45.394l-86.718.174Z"/><path fill="#01023F" d="M257.681 348.663c5.88-.019 12.936.29 18.63-1.254 3.775-1.023 6.924-2.787 10.15-4.964 1.77 2.285 4.362 4.207 6.561 6.083 14.267 12.176 31.995 17.65 50.352 19.974 13.256 1.676 28.19 1.117 41.189-2.143 5.373-1.348 10.519-3.316 15.77-5.047 8.887-2.928 16.577-5.276 24.16-11.18 2.307-1.797 5.015-4.858 7.674-5.862l.445-.171c1.796-.647 4.156-1.04 5.946-.265-.105 1.218-1.793 2.405-2.663 3.275l-7.725 7.725.497.303c3.899-3.165 6.975-7.85 11.054-10.665l16.681 10.506c.918.558 1.199 1.42 1.568 2.378-4.472.04-9.536-.196-13.664-2.026l-.362-.162-16.063 14.542c-13.615 10.393-29.862 19.64-46.411 24.29-18.352 5.155-38.85 5.404-57.66 2.836-7.704-1.052-15.667-2.52-23.018-5.09-9.599-3.356-18.521-8.214-27.101-13.614-7.458-4.694-14.346-9.518-21.04-15.266-4.849-4.162-9.663-8.54-13.544-13.64l18.574-.563Z"/><defs><linearGradient id="a" gradientUnits="userSpaceOnUse" x1="520.997" y1="631.696" x2="540.406" y2="130.005"><stop offset="0" stop-color="#ECC5FA"/><stop offset="1" stop-color="#FFFFFE"/></linearGradient></defs><path fill="url(#a)" transform="scale(.66667)" d="M97.556 481.467c-2.592-19.023 3.563-37.748 15.053-52.905 11.637-15.352 28.787-26.068 47.999-28.745 9.047-1.26 17.272-.731 26.164 1.237 5.829-13.638 14.527-23.663 28.57-29.256l9.185-2.929c1.554-12.503 4.434-24.251 7.856-36.369 16.492-58.411 52.758-110.492 100.449-147.75 11.7-9.14 24.721-16.958 37.84-23.88 12.187-6.431 24.562-12.269 37.578-16.847 40.59-14.278 83.575-18.234 126.155-12.838 70.052 8.879 133.372 44.597 183.578 93.357 10.696 10.387 21.614 21.52 30.725 33.312 18.52 23.968 33.47 50.88 43.072 79.665 21.826-5.117 41.417-3.738 60.812 8.342 19.626 12.224 31.518 32.319 36.671 54.498 1.585 6.819 2.345 14.124 2.332 21.122 18.004.981 33.256 8.625 45.264 22.022 14.56 16.246 21.174 35.634 19.912 57.262-.896 15.348-7.059 32.434-18.809 42.812-3.852 3.403-8.083 6.16-12.865 8.078-4.229 1.696-8.655 2.884-13.212 3.225-7.934.594-16.129.245-24.091.229l-41.025-.099-119.487.216-26.447.099c-1.745.014-5.835-.485-7.363.061-.718.257-4.673 5.803-5.703 6.921-5.315 5.764-11.467 11.034-17.463 16.073-26.625 22.373-61.582 41.414-95.72 48.713-16.601 3.55-33.629 4.409-50.55 4.434l-24.215-.462c-31.601-2.182-61.156-8.175-90.704-19.886-7.276-2.884-15.195-5.966-21.927-9.961l-.442.583c-4.996 6.515-12.593 11.566-20.86 12.563-6.761.816-13.849.533-20.652.546l-32.859-.08-65.447-.044c-2.595-.095-5.036-.217-7.481-1.145-7.298-2.772-13.427-7.948-16.751-15.084-2.346-5.035-3.352-10.928-2.611-16.465 3.447 1.653 11.441.451 15.387.261l.599-1.363.138-2.24c3.541-.983 8.278-.501 11.985-.567l130.076-.261 1.762.496c1.344 1.562 1.988 1.847 4.105 2.009l10.973.622-.048 2.451c3.195 2.754 8.402 4.269 12.31 5.83 7.975 3.185 15.825 6.464 24.018 9.071l16.278 4.528c6.561 2.126 14.55 3.361 21.398 4.269l20.385 2.664c5.881 1.306 12.308.856 18.297 1.42 9.2.867 18.389.514 27.62.17 17.795-.662 35.93-3.086 52.978-8.351 25.537-7.887 50.845-23.222 71.45-40.087 9.578-7.84 18.238-15.46 24.095-26.52l4.689-.292-1.628-.168c-.553-1.437-.974-2.73-2.351-3.567l-25.022-15.759c-6.119 4.221-10.733 11.249-16.581 15.997l-.745-.455 11.587-11.587c1.305-1.305 3.837-3.085 3.995-4.913-2.686-1.163-6.226-.573-8.919.398l-.668.256c-3.989 1.507-8.05 6.098-11.511 8.793-11.374 8.856-22.909 12.378-36.239 16.771-7.878 2.596-15.596 5.548-23.656 7.57-19.497 4.89-41.9 5.729-61.783 3.214-27.535-3.484-54.128-11.697-75.528-29.96-3.299-2.815-7.188-5.698-9.843-9.125-4.837 3.266-9.561 5.911-15.223 7.446-8.541 2.317-19.127 1.853-27.945 1.881l-27.862.844c-3.816-.905-8.907-.283-12.924-.294l-29.284-.069-125.012-.511-35.997-.016c-7.508 0-15.651.649-23.016-.768-5.829-1.123-11.276-3.47-16.064-7.026-11.008-8.176-16.925-20.369-18.807-33.687Z"/><defs><linearGradient id="b" gradientUnits="userSpaceOnUse" x1="444.188" y1="486.552" x2="442.961" y2="469.611"><stop offset="0" stop-color="#FFA1B6"/><stop offset="1" stop-color="#FFC5E6"/></linearGradient></defs><path fill="url(#b)" transform="scale(.66667)" d="M434.512 486.874c4.247-5.778 7.256-11.277 9.604-18.053 2.051.118 4.958-.168 6.432 1.459 1.331 1.47 1.759 4.533 2.151 6.47l-2.645 10.244c-3.425-1.083-7.752.63-11.304.975-1.92.187-2.772.127-4.238-1.095Z"/><path fill="#0F153F" d="m252.181 385.282 1.175.33c-.32 3.182-3.807 7.02-6.161 8.948-2.136 1.75-4.676 2.77-7.396 3.16-4.167.596-8.71.326-12.924.363l-23.459.132-21.698.051c-3.876.002-7.934.266-11.774-.184-4.033-.472-7.858-2.413-10.357-5.658-1.139-1.478-1.82-3.282-2.205-5.097l.092-1.493c2.36-.656 5.519-.334 7.99-.378l86.717-.174Z"/><path fill="#FFDDCD" d="M188.915 268.055c-1.432-2.023-2.374-4.449-3.62-6.602-4.443-7.682-12.036-13.01-20.526-15.308.334-4.056 1.283-8.186 2.206-12.145 3.14-13.467 8.632-26.722 15.136-38.895 4.738-8.867 9.95-17.69 15.972-25.758 4.245-5.686 9.008-10.882 13.892-16.018 5.532-5.818 11.073-11.396 17.275-16.508 17.267-14.232 37.71-24.513 59.017-31.04 17.173-5.26 35.531-6.748 53.4-5.808 14 .737 27.635 2.746 41.046 6.981 11.045 3.488 21.856 8.62 32.067 14.053 30.774 16.378 58.643 40.486 78.148 69.466 5.982 8.888 11.316 18.092 15.406 28.023 1.799 4.369 3.17 8.894 4.548 13.407-4.49 3.373-8.732 8.163-11.366 13.096-1.421 2.661-2.42 5.515-3.85 8.16-2.068-5.03-2.204-11.046-3.562-16.34-3.752-14.628-8.158-28.592-14.596-42.292-3.757-7.996-8.398-16.269-13.74-23.292-3.8-4.999-8.378-9.608-12.884-13.978-18.676-18.108-40.45-30.9-64.88-39.663-24.194-8.679-51.863-10.36-76.85-4.228-9.365 2.297-18.436 5.847-27.147 9.961-8.11 3.83-15.44 8.608-22.642 13.914-4.976 3.667-9.994 7.331-14.546 11.53-14.95 13.79-27.37 31.292-36.469 49.44-2.753 5.492-5.404 10.971-7.489 16.758-5.628 14.786-10.35 29.39-12.758 45.09-.397 2.591-1.07 5.202-1.18 7.816l-.008.18Z"/><path fill="#0F153F" d="M76.236 313.8c.308-6.856 3.35-13.69 7.36-19.185 5.817-7.97 14.106-13.656 23.97-15.16 5.73-.873 11.66.355 16.544 3.491 2.52 1.617 4.795 3.69 7.221 5.459.124-6.43.75-12.12 4.134-17.742 3.536-5.875 9.082-10.232 15.806-11.817 6.43-1.517 12.961-.08 18.505 3.377 8.394 5.232 11.543 11.976 13.67 21.277 1.02-.26 2.051-1.212 2.96-1.771 3.705-2.286 9.27-2.779 13.417-1.753 5.438 1.345 9.348 4.684 12.184 9.39l3.528-.113c8.268.052 14.522 5.545 19.998 11.148l1.212-6.52c1.794-7.414 7.582-14.509 14.085-18.39 6.845-4.086 14.766-5.312 22.506-3.342 8.126 2.068 15.327 7.477 19.531 14.702 4.686 8.051 5.596 16.817 3.21 25.696-1.565 4.518-3.57 8.184-6.402 12.036.977.814 1.545.854 2.825.73 2.368-.23 5.253-1.372 7.536-.65l.019.223c-1.404.985-1.808 2.767-2.555 4.299a39.467 39.467 0 0 1-2.767 4.796c-2.244 3.32-5.048 6.099-8.273 8.464-3.225 2.177-6.374 3.94-10.149 4.964-5.694 1.545-12.75 1.235-18.63 1.254l1.486-.436c1.454-2.583-.184-9.129-.719-12.023-.633-.296-1.22-.49-1.92-.52l-20.304.155-31.678.115-98.905-.117-9.641.416c-4.767.07-10.734-3.544-14.045-6.783-4.751-4.646-5.626-9.273-5.719-15.67Z"/><path fill="#FF6D6E" d="M258.448 336.204c2.186 1.115 5.287 1.545 7.715 1.417 9.413-.497 17.442-6.286 23.512-13.038.977.814 1.545.854 2.825.73 2.368-.23 5.253-1.372 7.536-.65l.019.223c-1.404.985-1.808 2.767-2.555 4.299a39.467 39.467 0 0 1-2.767 4.796c-2.244 3.32-5.048 6.099-8.273 8.464-3.225 2.177-6.374 3.94-10.149 4.964-5.694 1.545-12.75 1.235-18.63 1.254l1.486-.436c1.454-2.583-.184-9.129-.719-12.023Z"/><defs><linearGradient id="c" gradientUnits="userSpaceOnUse" x1="575.245" y1="174.765" x2="508.931" y2="412.718"><stop offset="0" stop-color="#FFB22E"/><stop offset="1" stop-color="#FF9241"/></linearGradient></defs><path fill="url(#c)" transform="scale(.66667)" d="M304.292 322.453c3.127-8.68 7.103-16.899 11.233-25.138 13.649-27.22 32.277-53.474 54.704-74.16 6.828-6.297 14.354-11.793 21.819-17.294 10.802-7.958 21.798-15.126 33.962-20.87 13.067-6.171 26.674-11.496 40.72-14.942 37.481-9.198 78.985-6.676 115.277 6.342 36.645 13.145 69.305 32.332 97.318 59.495 6.76 6.555 13.626 13.468 19.328 20.966 8.011 10.535 14.973 22.945 20.609 34.939 9.657 20.55 16.265 41.496 21.893 63.438 2.037 7.94 2.241 16.964 5.344 24.509l-.187.595c-1.613 5.249-2.011 10.858-2.325 16.313-10.157-2.436-19.696-2.038-29.743.776-.262-3.897-1.742-7.943-2.818-11.692-2.5-8.705-4.892-18.937-9.802-26.552-3.545-5.498-8.606-9.885-12.208-15.327-4.141-6.255-7.25-13.206-10.971-19.712-9.889-17.296-20.724-34.43-34.323-49.077-21.186-22.82-49.153-38.471-79.096-46.56-11.765-3.178-23.823-5.555-36.026-6.01-21.165-.79-41.738 3.857-61.611 10.769-12.941 4.501-25.471 9.785-37.346 16.666-19.005 11.012-37.24 24.794-51.531 41.572-18.776 22.042-30.714 49.268-38.049 77.001l-.588.248c-1.247-.981-1.457-1.923-2.369-3.128-1.982-2.62-4.018-5.313-5.729-8.118l-.527-.002v-.745c-.38-.685-.63-1.144-1.205-1.685-1.218-1.147-2.091-2.81-3.05-4.182l-6.566-9.386c-1.425-1.938-3.872-4.457-4.932-6.5-1.009-1.944-3.512-4.976-5.082-6.587-.842-.864-2.309-1.916-2.917-2.913-.754-1.233-1.151-2.019-2.571-2.741l-.635-.308Z"/><path fill="#0F153F" d="M300.055 324.886c27.202 4.076 56.343.613 78.981-16.104l7.609-6.122c-.744-6.76 1.161-13.957 5.47-19.312 5.033-6.254 13.575-10.679 21.553-11.43 7.812-.737 15.602 1.701 21.644 6.736 6.816 5.68 10.57 12.397 12.462 21.031.529 2.42.654 5.23 1.485 7.544.246.686.985 1.064 1.575 1.418.547-.209.58-.158.822-.688 1.05-2.287 1.207-5.162 2.178-7.584 3.71-9.258 11.12-17.4 20.49-21.057 7.966-3.108 17.107-2.64 24.89.835l7.274 4.041c-1.617-11.683-1.602-23.164 5.92-33.07a38.613 38.613 0 0 1 25.824-14.971c10.018-1.3 20.244 1.632 28.198 7.766 8.646 6.665 13.679 16.778 15.06 27.496 1.172 9.098-1.068 18.3-6.748 25.542-2.573 3.282-5.421 5.748-8.75 8.222 2.468.084 4.96.17 7.324-.664 4.006-1.413 7.338-4.455 10.945-6.63 3.172-1.912 6.725-3.666 10.38-4.406 8.89-1.8 17.083 2.264 23.056 8.671 6.631 7.111 10.25 17.67 9.888 27.351-.3 8.052-1.974 16.185-8.134 21.89-2.957 2.737-6.928 4.848-10.92 5.495-4.521.732-9.449.392-14.03.4l-23.05.02-72.571-.074c-13.162-.02-26.698-.613-39.825.236l-1.085-.112c-.37-.958-.65-1.82-1.568-2.378l-16.681-10.506c-4.08 2.814-7.155 7.5-11.054 10.665l-.497-.303 7.725-7.725c.87-.87 2.558-2.057 2.663-3.275-1.79-.776-4.15-.382-5.946.265l-.445.17c-2.66 1.005-5.367 4.066-7.674 5.863-7.583 5.904-15.273 8.252-24.16 11.18-5.251 1.73-10.397 3.699-15.77 5.047-12.998 3.26-27.933 3.82-41.189 2.143-18.357-2.323-36.085-7.798-50.352-19.974-2.2-1.876-4.792-3.798-6.562-6.083 3.225-2.365 6.029-5.144 8.273-8.464a39.467 39.467 0 0 0 2.767-4.796c.747-1.532 1.15-3.314 2.555-4.299Z"/><path fill="#FF8D37" d="m202.861 214.969.424.205c.946.481 1.211 1.005 1.714 1.827.405.665 1.383 1.366 1.944 1.942 1.047 1.074 2.716 3.096 3.388 4.392.707 1.362 2.338 3.041 3.288 4.333l4.378 6.257c.64.915 1.221 2.024 2.033 2.788.383.361.55.667.803 1.124v.496l.352.002c1.14 1.87 2.498 3.665 3.82 5.412.607.803.747 1.431 1.578 2.085l.392-.165c4.89-18.489 12.85-36.64 25.366-51.334 9.528-11.186 21.684-20.374 34.354-27.715 7.917-4.587 16.27-8.11 24.898-11.11 13.248-4.609 26.964-7.707 41.074-7.18 8.135.303 16.174 1.888 24.017 4.007 19.962 5.392 38.607 15.826 52.73 31.04 9.067 9.764 16.29 21.187 22.883 32.718 2.48 4.337 4.553 8.971 7.314 13.141 2.401 3.628 5.775 6.553 8.139 10.218 3.273 5.077 4.868 11.898 6.534 17.701.718 2.5 1.704 5.197 1.879 7.795-10.083 2.92-18.995 8.234-25.403 16.635-5.572-8.848-15.473-15.176-25.594-17.524l-3.95-.797a26.05 26.05 0 0 0-2.86-.263c-6.162-.28-12.28.04-18.181 1.976-8.577 2.814-15.977 8.318-24.097 12.156-10.371 4.9-21.312 7.34-32.758 7.274-15.723-.09-31.781-4.499-46.077-10.86-4.036-1.795-7.512-4.113-11.38-6.17-7.136-3.797-14.65-5.839-22.75-5.726-6.587.092-13.526 1.908-19.13 5.431-7.117 4.473-11.712 10.631-15.702 17.887-8.398-8.688-18.43-16.42-31.114-16.672a56.519 56.519 0 0 0-5.772.165c-.336.028-1.633.283-1.886.2-.268-.09-.396-.404-.594-.605l.008-.18c.11-2.614.783-5.225 1.18-7.816 2.408-15.7 7.13-30.304 12.758-45.09Z"/><path fill="#01023F" d="M406.663 216.407c2.145-.266 4.607-.313 6.728.151 3.864.844 7.912 2.894 10.09 6.339.616.972 1.244 2.413.903 3.576-.185.632-.62.733-1.152 1.066-.208.007-.912.102-1.065.034-1.22-.547-2.497-2.878-3.611-3.79-1.211-.992-2.705-1.625-4.12-2.267-3.941-1.128-9.03-1.083-12.27 1.8-1.254 1.118-2.28 2.652-3.832 3.339-.324-.049-.708-.082-1-.252-.92-.538-1.161-1.139-1.497-2.07.135-.604.308-1.178.632-1.712 2.238-3.688 6.274-5.124 10.194-6.214Zm-107.81-.959c3.147-.263 6.521.372 9.338 1.81 2.214 1.132 4.985 3.321 5.788 5.742-.01 1.091-.09 1.687-.732 2.585-.692.423-1.26.928-2.08.381-.735-.49-1.535-1.65-2.19-2.3-2.144-2.127-5.386-3.235-8.348-3.395l-.458-.023c-2.869.035-5.706.785-8.1 2.411-2.149 1.46-3.193 3.916-6.016 3.893-.955-.615-.975-.633-1.308-1.719.371-1.238.877-2.157 1.676-3.174 3.036-3.867 7.697-5.664 12.43-6.21Z"/><path fill="#FF6D6E" d="M424.619 239.437c2.715.06 5.288.232 7.617 1.756 1.665 1.09 3.377 3.108 3.7 5.14.23 1.454-.02 2.031-.872 3.167-2.525.973-7.042.403-9.814.392-2.69.025-9.304.824-11.167-.892-.285-1.84.371-2.918 1.415-4.349 2.286-3.13 5.367-4.63 9.12-5.214Zm-143.106-2.722c3.334-.31 7.244-.149 9.987 2.03 1.834 1.458 4.277 4.342 4.48 6.777.062.754-.161 1.455-.699 2.016-1.5 1.564-6.096 1.067-8.164 1.1l-9.01.024c-1.236-.001-3.05.209-4.219-.135-.765-.226-.875-.562-1.27-1.194-.182-1.456.151-2.927.801-4.236 1.707-3.435 4.55-5.278 8.094-6.382Z"/><path fill="#01023F" d="M320.351 242.167c.954-.006 1.695.055 2.27 1 .504.826.75 2.457 1.008 3.416 1.03 3.827 3.352 6.766 6.413 9.237 7.482 6.037 17.792 8.095 27.216 7.079 9.325-1.006 19.375-4.886 23.49-13.914.73-1.6 1.02-4.722 2.094-5.938.468-.53.984-.388 1.658-.432.889.44 1.04.558 1.582 1.385.044 1.275-.325 2.447-.643 3.67-.852 2.375-1.944 4.514-3.447 6.547-5.256 7.108-13.78 10.51-22.27 11.814-10.574 1.626-22.692-.09-31.413-6.612-4.784-3.578-8.619-9.238-9.507-15.252.332-1.019.663-1.406 1.55-2Z"/><path fill="#01023F" d="M353.574 227.812c3.686-.301 8.154.233 11.638 1.443 2.059.714 4.144 1.886 5.12 3.912.192 2.336-.475 4.088-1.78 5.99-2.931 4.275-7.502 6.498-12.472 7.434-3.467.27-7.878-1.26-10.694-3.204-2.63-1.814-5.978-4.806-6.31-8.22-.11-1.137.55-2.33 1.284-3.147 3.104-3.456 8.875-3.859 13.214-4.208Zm27.196-17.463c4.476-6.874 12.704-12.039 20.71-13.696 8.03-1.662 16.123-.22 22.944 4.352 5.222 3.501 12.852 10.728 14.122 17.197.137.695.089 1.383.01 2.08l-.722.9c-1.086.102-1.368.142-2.282-.573-1.87-1.465-3.39-3.514-5.173-5.114-5.955-5.34-14.153-8.887-22.217-8.164-7.878.707-14.672 4.805-20.254 10.242-1.655 1.611-3.382 3.854-5.344 5.054-1.29.788-2.763 1.038-4.066.095-.873-.633-1.117-1.397-1.236-2.402.76-3.604 1.916-6.676 3.508-9.971Zm-50.14 9.939-.383 1.212c-.88.936-1.528 1.385-2.747 1.797-3.057-.572-6.8-5.398-9.094-7.534-1.918-1.787-3.905-3.414-6.122-4.826-9.8-6.239-22.821-5.29-31.813 1.984-1.69 1.368-3.315 2.93-4.795 4.527-.892.963-2.871 4.359-4.082 4.59-1.156.22-2.343-.406-3.269-1.03-.407-.829-.515-1.041-.408-2 .202-1.821 1.197-3.72 2.073-5.305 2.493-4.509 5.94-8.79 10.049-11.94 6.916-5.304 16.217-6.874 24.7-5.649 8.644 1.247 17.03 7 22.182 13.905 1.67 3.357 3.088 6.537 3.71 10.27Z"/><path fill="#FB6A00" d="M326.92 210.02c8.338-7.311 19-12.107 30.252-11.356 6.673.446 13.38 3.804 18.662 7.765 1.656 1.242 3.207 2.813 4.936 3.92-1.592 3.295-2.748 6.367-3.508 9.971l-.358.12c-.631-.244-1.254-.489-1.847-.816-10.71-5.908-23.157-5.842-34.663-2.516-3.118.901-6.378 2.65-9.532 3.148l-.232.032c-.62-3.732-2.039-6.912-3.71-10.269Z"/></svg>
